<svg version="1.1" id="Layer_1" xmlns="http://www.w3.org/2000/svg" xmlns:xlink="http://www.w3.org/1999/xlink" x="0px" y="0px"
	 width="100%" viewBox="0 0 80 90" enable-background="new 0 0 80 90" xml:space="preserve">
<path fill="#E2261D" opacity="1.000000" stroke="none" 
	d="
M10.000000,91.000000 
	C7.013453,91.000000 4.026907,91.000000 1.033629,91.000000 
	C1.026897,60.999992 1.026897,30.999992 1.026897,1.000000 
	C3.708498,1.000000 6.363201,1.000000 9.214657,1.287409 
	C12.282394,3.385722 15.098534,5.291308 18.033638,6.991524 
	C32.546543,15.398396 47.078796,23.772083 61.629730,32.112984 
	C68.055359,35.796288 74.541389,39.374226 81.000000,43.000000 
	C81.000000,44.714359 81.000000,46.428715 80.751160,48.239738 
	C79.174721,49.284607 77.913490,50.346867 76.509499,51.163784 
	C57.658051,62.132523 38.759636,73.020897 19.944641,84.051628 
	C16.467154,86.090401 13.306752,88.670013 10.000000,91.000000 
M44.583218,52.926464 
	C45.130554,52.912865 45.677895,52.899269 47.079853,52.815575 
	C49.706730,52.815575 52.333607,52.815575 54.960484,52.815575 
	C54.981926,52.300961 55.003368,51.786346 55.024811,51.271736 
	C53.325680,50.852715 51.626553,50.433697 49.714405,49.962143 
	C51.659733,46.401352 53.416706,43.185329 55.625690,39.141941 
	C51.797935,39.141941 49.036743,39.141941 45.432327,39.112511 
	C44.869995,39.118916 44.307667,39.125320 42.896416,39.179821 
	C40.303520,39.315456 37.710625,39.451088 35.117729,39.586720 
	C35.117577,40.016548 35.117420,40.446377 35.117268,40.876205 
	C36.769497,41.190899 38.421730,41.505596 40.713619,41.942123 
	C38.536938,45.599552 36.603813,48.847736 34.204395,52.879425 
	C38.157406,52.879425 40.960140,52.879425 44.583218,52.926464 
M5.164965,43.786804 
	C5.164965,46.692226 5.164965,49.597649 5.164965,52.596783 
	C7.200227,52.698139 8.359052,52.873753 9.499624,52.792652 
	C15.028346,52.399544 18.237293,47.088741 15.138291,42.529755 
	C13.896118,40.702377 10.504911,40.078438 7.959190,39.566360 
	C7.279747,39.429691 6.110841,41.726330 5.164965,43.786804 
M25.114746,48.918568 
	C26.794134,53.180252 28.698935,53.823387 33.002247,51.703953 
	C31.255121,50.665718 29.422701,49.576797 27.590279,48.487873 
	C27.861717,48.076305 28.133158,47.664734 28.404596,47.253166 
	C29.850412,46.899807 31.296227,46.546448 33.366901,46.040367 
	C31.041254,44.845970 29.487093,44.047787 27.932928,43.249603 
	C29.608816,42.236805 31.284704,41.224010 33.821686,39.690826 
	C30.545382,39.690826 28.112293,39.690826 25.084227,39.690826 
	C25.084227,42.532013 25.084227,45.292240 25.114746,48.918568 
M62.809673,50.122158 
	C63.577942,47.127651 64.346207,44.133148 65.405266,40.005203 
	C63.543800,42.112267 62.498501,43.295479 61.584152,44.330460 
	C60.100624,42.362461 58.837868,40.687328 57.575108,39.012196 
	C58.095615,43.526394 59.208378,47.533638 60.433434,51.506252 
	C60.444016,51.540581 61.966080,51.108803 62.809673,50.122158 
M23.067785,48.891739 
	C23.067785,45.780567 23.067785,42.669399 23.067785,39.146416 
	C20.935993,39.364277 19.442974,39.516857 17.234579,39.742546 
	C22.480751,43.316143 22.128723,48.649677 17.256912,51.815910 
	C17.502186,52.249821 17.747459,52.683731 17.992733,53.117641 
	C19.654650,51.990387 21.316568,50.863132 23.067785,48.891739 
M21.999311,58.038914 
	C21.841553,57.793808 21.712034,57.520897 21.511837,57.317574 
	C21.434067,57.238590 21.090481,57.256248 21.047356,57.332001 
	C19.261211,60.469501 20.858784,63.991798 24.297592,63.964367 
	C27.164423,63.941502 30.025965,63.255787 34.058849,62.703583 
	C32.727562,61.007328 31.898125,59.918068 31.011000,58.878010 
	C30.935017,58.788929 30.475685,59.026833 30.192215,59.113800 
	C30.433798,59.910122 30.675381,60.706440 31.027405,61.866810 
	C28.652008,61.866810 26.602682,62.216541 24.772049,61.734959 
	C23.683002,61.448467 22.937943,59.854366 21.999311,58.038914 
z"/>
<path fill="#000000" opacity="1.000000" stroke="none" 
	d="
M81.000000,42.531342 
	C74.541389,39.374226 68.055359,35.796288 61.629730,32.112984 
	C47.078796,23.772083 32.546543,15.398396 18.033638,6.991524 
	C15.098534,5.291308 12.282394,3.385722 9.705705,1.287409 
	C33.574669,1.000000 57.149338,1.000000 81.000000,1.000000 
	C81.000000,14.686325 81.000000,28.374504 81.000000,42.531342 
z"/>
<path fill="#000000" opacity="1.000000" stroke="none" 
	d="
M10.468657,91.000000 
	C13.306752,88.670013 16.467154,86.090401 19.944641,84.051628 
	C38.759636,73.020897 57.658051,62.132523 76.509499,51.163784 
	C77.913490,50.346867 79.174721,49.284607 80.751160,48.668201 
	C81.000000,62.945580 81.000000,76.891159 81.000000,91.000000 
	C57.646000,91.000000 34.291656,91.000000 10.468657,91.000000 
z"/>
<path fill="#F9D0CE" opacity="1.000000" stroke="none" 
	d="
M5.165807,43.346313 
	C6.110841,41.726330 7.279747,39.429691 7.959190,39.566360 
	C10.504911,40.078438 13.896118,40.702377 15.138291,42.529755 
	C18.237293,47.088741 15.028346,52.399544 9.499624,52.792652 
	C8.359052,52.873753 7.200227,52.698139 5.164965,52.596783 
	C5.164965,49.597649 5.164965,46.692226 5.165807,43.346313 
M11.999936,49.757763 
	C14.633287,43.889500 13.698544,41.828609 7.917908,41.827755 
	C7.917908,43.915230 7.594256,46.085079 8.065394,48.065887 
	C8.275678,48.949982 10.083726,49.454052 11.999936,49.757763 
z"/>
<path fill="#E4352C" opacity="1.000000" stroke="none" 
	d="
M46.225231,52.885674 
	C45.677895,52.899269 45.130554,52.912865 44.281166,52.514343 
	C42.432426,51.363537 40.885738,50.624851 39.514198,49.969818 
	C40.884686,46.459305 42.315010,42.795513 43.745335,39.131725 
	C44.307667,39.125320 44.869995,39.118916 45.771797,39.521000 
	C47.701836,40.645153 49.292412,41.360817 51.349396,42.286339 
	C50.474613,43.799709 49.495136,45.273220 48.741364,46.854336 
	C47.805088,48.818268 47.055466,50.871185 46.225231,52.885674 
z"/>
<path fill="#F9D2D0" opacity="1.000000" stroke="none" 
	d="
M25.099487,48.485516 
	C25.084227,45.292240 25.084227,42.532013 25.084227,39.690826 
	C28.112293,39.690826 30.545382,39.690826 33.821686,39.690826 
	C31.284704,41.224010 29.608816,42.236805 27.932930,43.249603 
	C29.487093,44.047787 31.041254,44.845970 33.366901,46.040367 
	C31.296227,46.546448 29.850412,46.899807 28.404596,47.253166 
	C28.133158,47.664734 27.861717,48.076305 27.590279,48.487873 
	C29.422701,49.576797 31.255121,50.665718 33.002247,51.703953 
	C28.698935,53.823387 26.794134,53.180252 25.099487,48.485516 
z"/>
<path fill="#FAD7D5" opacity="1.000000" stroke="none" 
	d="
M43.320877,39.155773 
	C42.315010,42.795513 40.884686,46.459305 39.514198,49.969818 
	C40.885738,50.624851 42.432426,51.363537 43.870995,52.490822 
	C40.960140,52.879425 38.157406,52.879425 34.204395,52.879425 
	C36.603813,48.847736 38.536938,45.599552 40.713619,41.942123 
	C38.421730,41.505596 36.769497,41.190899 35.117268,40.876205 
	C35.117420,40.446377 35.117577,40.016548 35.117729,39.586720 
	C37.710625,39.451088 40.303520,39.315456 43.320877,39.155773 
z"/>
<path fill="#FADAD8" opacity="1.000000" stroke="none" 
	d="
M46.652542,52.850624 
	C47.055466,50.871185 47.805088,48.818268 48.741364,46.854336 
	C49.495136,45.273220 50.474613,43.799709 51.349396,42.286339 
	C49.292412,41.360817 47.701836,40.645153 46.193405,39.535713 
	C49.036743,39.141941 51.797935,39.141941 55.625690,39.141941 
	C53.416706,43.185329 51.659733,46.401352 49.714405,49.962143 
	C51.626553,50.433697 53.325680,50.852715 55.024811,51.271736 
	C55.003368,51.786346 54.981926,52.300961 54.960484,52.815575 
	C52.333607,52.815575 49.706730,52.815575 46.652542,52.850624 
z"/>
<path fill="#F9D5D3" opacity="1.000000" stroke="none" 
	d="
M62.796062,50.508400 
	C61.966080,51.108803 60.444016,51.540581 60.433434,51.506252 
	C59.208378,47.533638 58.095615,43.526394 57.575108,39.012196 
	C58.837868,40.687328 60.100624,42.362461 61.584152,44.330460 
	C62.498501,43.295479 63.543800,42.112267 65.405266,40.005203 
	C64.346207,44.133148 63.577942,47.127651 62.796062,50.508400 
z"/>
<path fill="#FCE9E8" opacity="1.000000" stroke="none" 
	d="
M23.023136,49.313808 
	C21.316568,50.863132 19.654650,51.990387 17.992733,53.117641 
	C17.747459,52.683731 17.502186,52.249821 17.256912,51.815910 
	C22.128723,48.649677 22.480751,43.316143 17.234579,39.742546 
	C19.442974,39.516857 20.935993,39.364277 23.067785,39.146416 
	C23.067785,42.669399 23.067785,45.780567 23.023136,49.313808 
z"/>
<path fill="#FCEAE9" opacity="1.000000" stroke="none" 
	d="
M22.018772,58.443527 
	C22.937943,59.854366 23.683002,61.448467 24.772049,61.734959 
	C26.602682,62.216541 28.652008,61.866810 31.027405,61.866810 
	C30.675381,60.706440 30.433798,59.910122 30.193325,59.113319 
	C30.475685,59.026833 30.935017,58.788929 31.011000,58.878010 
	C31.898125,59.918068 32.727562,61.007328 34.058849,62.703583 
	C30.025965,63.255787 27.164423,63.941502 24.297592,63.964367 
	C20.858784,63.991798 19.261211,60.469501 21.047356,57.332001 
	C21.090481,57.256248 21.434067,57.238590 21.511837,57.317574 
	C21.712034,57.520897 21.841553,57.793808 22.018772,58.443527 
z"/>
<path fill="#E42F26" opacity="1.000000" stroke="none" 
	d="
M11.583286,49.944176 
	C10.083726,49.454052 8.275678,48.949982 8.065394,48.065887 
	C7.594256,46.085079 7.917908,43.915230 7.917908,41.827755 
	C13.698544,41.828609 14.633287,43.889500 11.583286,49.944176 
z"/>
</svg>