<svg xmlns="http://www.w3.org/2000/svg" xmlns:xlink="http://www.w3.org/1999/xlink" width="1920" zoomAndPan="magnify" viewBox="0 0 1440 809.999993" height="1080" preserveAspectRatio="xMidYMid meet" version="1.0"><defs><clipPath id="f1c2aa00a2"><path d="M 419.601562 66.875 L 1014 66.875 L 1014 742.769531 L 419.601562 742.769531 Z M 419.601562 66.875 " clip-rule="nonzero"/></clipPath></defs><g clip-path="url(#f1c2aa00a2)"><path fill="#ffffff" d="M 469.167969 71.378906 L 997.117188 376.285156 C 1018.894531 389.050781 1018.894531 420.59375 997.117188 433.359375 L 469.167969 738.261719 C 447.390625 751.027344 419.601562 735.257812 419.601562 709.722656 L 419.601562 99.917969 C 419.601562 74.382812 447.390625 58.613281 469.167969 71.378906 Z M 469.167969 71.378906 " fill-opacity="1" fill-rule="nonzero"/></g><path fill="#000000" d="M 452.644531 454.386719 L 486.441406 454.386719 C 517.984375 454.386719 530.75 436.363281 530.75 410.828125 L 530.75 397.3125 C 530.75 371.027344 515.730469 356.007812 484.9375 356.007812 L 452.644531 356.007812 Z M 469.917969 440.117188 L 469.917969 369.523438 L 485.691406 369.523438 C 504.464844 369.523438 513.476562 378.535156 513.476562 397.3125 L 513.476562 409.328125 C 513.476562 428.851562 505.214844 439.367188 486.441406 439.367188 L 469.917969 439.367188 Z M 469.917969 440.117188 " fill-opacity="1" fill-rule="nonzero"/><path fill="#000000" d="M 540.511719 454.386719 L 554.78125 454.386719 C 574.308594 454.386719 585.570312 443.121094 585.570312 423.597656 L 585.570312 355.253906 L 545.019531 355.253906 L 545.019531 369.523438 L 569.050781 369.523438 L 569.050781 423.597656 C 569.050781 434.109375 564.542969 440.117188 554.03125 440.117188 L 540.511719 440.117188 Z M 540.511719 454.386719 " fill-opacity="1" fill-rule="nonzero"/><path fill="#000000" d="M 627.628906 454.386719 L 662.171875 454.386719 L 662.171875 440.117188 L 631.382812 440.117188 C 623.121094 440.117188 619.367188 436.363281 619.367188 426.601562 L 619.367188 410.078125 L 657.667969 410.078125 L 657.667969 395.808594 L 619.367188 395.808594 L 619.367188 369.523438 L 661.421875 369.523438 L 661.421875 355.253906 L 602.09375 355.253906 L 602.09375 427.351562 C 601.34375 445.375 610.355469 454.386719 627.628906 454.386719 " fill-opacity="1" fill-rule="nonzero"/><path fill="#000000" d="M 674.1875 454.386719 L 744.78125 454.386719 L 744.78125 440.117188 L 697.46875 440.117188 C 710.988281 422.09375 736.523438 382.292969 744.03125 363.515625 L 744.03125 355.253906 L 675.691406 355.253906 L 675.691406 369.523438 L 721.503906 369.523438 C 713.242188 389.050781 686.957031 428.101562 673.4375 445.375 L 673.4375 454.386719 Z M 674.1875 454.386719 " fill-opacity="1" fill-rule="nonzero"/><path fill="#000000" d="M 754.546875 454.386719 L 825.140625 454.386719 L 825.140625 440.117188 L 777.828125 440.117188 C 791.34375 422.09375 816.128906 382.292969 824.386719 363.515625 L 824.386719 355.253906 L 756.796875 355.253906 L 756.796875 369.523438 L 802.609375 369.523438 C 794.347656 389.050781 768.0625 428.101562 754.546875 445.375 Z M 754.546875 454.386719 " fill-opacity="1" fill-rule="nonzero"/><path fill="#000000" d="M 865.691406 454.386719 L 882.214844 454.386719 L 882.214844 414.585938 L 914.507812 356.757812 L 914.507812 355.253906 L 897.984375 355.253906 L 874.703125 401.066406 L 851.425781 355.253906 L 833.398438 355.253906 L 833.398438 356.757812 L 865.691406 415.335938 Z M 865.691406 454.386719 " fill-opacity="1" fill-rule="nonzero"/><path fill="#000000" d="M 553.28125 510.710938 L 553.28125 527.234375 C 553.28125 546.007812 545.019531 553.519531 527.746094 553.519531 L 527.746094 543.753906 C 537.507812 543.753906 542.015625 539.25 542.015625 529.484375 L 542.015625 511.460938 L 553.28125 511.460938 Z M 553.28125 510.710938 " fill-opacity="1" fill-rule="nonzero"/><path fill="#000000" d="M 647.152344 494.941406 C 641.898438 491.183594 635.136719 489.683594 627.628906 489.683594 C 623.121094 489.683594 618.617188 490.433594 614.109375 492.6875 C 609.605469 494.1875 606.601562 497.195312 602.84375 500.199219 C 605.097656 503.953125 607.351562 506.957031 608.101562 509.210938 C 610.355469 506.207031 613.359375 503.953125 617.113281 502.449219 C 620.117188 500.949219 623.121094 500.199219 625.375 500.199219 C 632.886719 500.199219 638.894531 502.449219 642.648438 507.707031 C 646.402344 512.214844 647.90625 517.46875 647.90625 524.230469 L 589.328125 524.230469 C 584.820312 524.230469 581.816406 523.476562 580.316406 522.726562 C 578.0625 521.226562 577.3125 518.222656 577.3125 512.964844 L 577.3125 487.429688 L 566.046875 487.429688 L 566.046875 517.46875 C 566.046875 522.726562 567.546875 527.234375 569.800781 530.988281 C 572.804688 534.742188 577.3125 536.246094 582.566406 536.246094 L 660.671875 536.246094 L 660.671875 528.734375 C 662.171875 512.214844 656.917969 501.699219 647.152344 494.941406 Z M 647.152344 494.941406 " fill-opacity="1" fill-rule="nonzero"/><path fill="#000000" d="M 496.953125 515.96875 C 499.207031 511.460938 501.460938 507.707031 505.214844 506.207031 C 508.21875 504.703125 512.726562 503.953125 517.984375 503.953125 L 517.984375 493.4375 C 496.203125 493.4375 483.4375 505.453125 483.4375 527.234375 L 509.722656 527.234375 C 505.96875 536.246094 498.457031 541.503906 487.941406 541.503906 C 480.433594 541.503906 474.425781 539.25 469.917969 533.992188 C 466.164062 529.484375 463.910156 523.476562 463.910156 515.96875 L 463.910156 506.207031 L 452.644531 506.207031 L 452.644531 517.46875 C 452.644531 527.234375 456.402344 535.492188 462.410156 542.253906 C 469.167969 549.011719 477.429688 552.015625 487.191406 552.015625 L 487.941406 552.015625 C 497.707031 552.015625 505.96875 548.261719 512.726562 542.253906 C 517.230469 537.746094 520.234375 533.242188 521.738281 527.234375 C 522.488281 524.980469 523.238281 520.472656 523.238281 515.96875 Z M 496.953125 515.96875 " fill-opacity="1" fill-rule="nonzero"/><path fill="#000000" d="M 633.636719 547.511719 C 633.636719 547.90625 633.597656 548.296875 633.519531 548.683594 C 633.445312 549.070312 633.328125 549.445312 633.179688 549.808594 C 633.027344 550.171875 632.84375 550.519531 632.625 550.847656 C 632.402344 551.175781 632.15625 551.480469 631.875 551.757812 C 631.597656 552.039062 631.292969 552.285156 630.964844 552.503906 C 630.636719 552.722656 630.292969 552.910156 629.925781 553.058594 C 629.5625 553.210938 629.1875 553.324219 628.800781 553.402344 C 628.414062 553.480469 628.023438 553.519531 627.628906 553.519531 C 627.234375 553.519531 626.84375 553.480469 626.457031 553.402344 C 626.070312 553.324219 625.691406 553.210938 625.328125 553.058594 C 624.964844 552.910156 624.617188 552.722656 624.289062 552.503906 C 623.960938 552.285156 623.660156 552.039062 623.378906 551.757812 C 623.101562 551.480469 622.851562 551.175781 622.632812 550.847656 C 622.414062 550.519531 622.226562 550.171875 622.078125 549.808594 C 621.925781 549.445312 621.8125 549.070312 621.734375 548.683594 C 621.660156 548.296875 621.621094 547.90625 621.621094 547.511719 C 621.621094 547.117188 621.660156 546.726562 621.734375 546.335938 C 621.8125 545.949219 621.925781 545.574219 622.078125 545.210938 C 622.226562 544.847656 622.414062 544.5 622.632812 544.171875 C 622.851562 543.84375 623.101562 543.539062 623.378906 543.261719 C 623.660156 542.984375 623.960938 542.734375 624.289062 542.515625 C 624.617188 542.296875 624.964844 542.109375 625.328125 541.960938 C 625.691406 541.808594 626.070312 541.695312 626.457031 541.617188 C 626.84375 541.539062 627.234375 541.503906 627.628906 541.503906 C 628.023438 541.503906 628.414062 541.539062 628.800781 541.617188 C 629.1875 541.695312 629.5625 541.808594 629.925781 541.960938 C 630.292969 542.109375 630.636719 542.296875 630.964844 542.515625 C 631.292969 542.734375 631.597656 542.984375 631.875 543.261719 C 632.15625 543.539062 632.402344 543.84375 632.625 544.171875 C 632.84375 544.5 633.027344 544.847656 633.179688 545.210938 C 633.328125 545.574219 633.441406 545.949219 633.519531 546.335938 C 633.597656 546.726562 633.636719 547.117188 633.636719 547.511719 Z M 633.636719 547.511719 " fill-opacity="1" fill-rule="nonzero"/><path fill="#000000" d="M 553.28125 498.695312 C 553.28125 499.089844 553.242188 499.480469 553.164062 499.867188 C 553.085938 500.253906 552.972656 500.628906 552.820312 500.996094 C 552.671875 501.359375 552.484375 501.703125 552.265625 502.03125 C 552.046875 502.359375 551.796875 502.664062 551.519531 502.945312 C 551.242188 503.222656 550.9375 503.472656 550.609375 503.691406 C 550.28125 503.910156 549.933594 504.09375 549.570312 504.246094 C 549.207031 504.398438 548.832031 504.511719 548.445312 504.585938 C 548.058594 504.664062 547.667969 504.703125 547.273438 504.703125 C 546.878906 504.703125 546.488281 504.664062 546.097656 504.585938 C 545.710938 504.511719 545.335938 504.398438 544.972656 504.246094 C 544.609375 504.09375 544.261719 503.910156 543.933594 503.691406 C 543.605469 503.472656 543.300781 503.222656 543.023438 502.945312 C 542.746094 502.664062 542.496094 502.359375 542.277344 502.03125 C 542.058594 501.707031 541.871094 501.359375 541.722656 500.996094 C 541.570312 500.628906 541.457031 500.253906 541.378906 499.867188 C 541.300781 499.480469 541.261719 499.089844 541.261719 498.695312 C 541.261719 498.300781 541.300781 497.910156 541.378906 497.523438 C 541.457031 497.136719 541.570312 496.761719 541.722656 496.394531 C 541.871094 496.03125 542.058594 495.683594 542.277344 495.359375 C 542.496094 495.03125 542.746094 494.726562 543.023438 494.445312 C 543.300781 494.167969 543.605469 493.917969 543.933594 493.699219 C 544.261719 493.480469 544.609375 493.296875 544.972656 493.144531 C 545.335938 492.992188 545.710938 492.878906 546.097656 492.804688 C 546.488281 492.726562 546.878906 492.6875 547.273438 492.6875 C 547.667969 492.6875 548.058594 492.726562 548.445312 492.804688 C 548.832031 492.878906 549.207031 492.992188 549.570312 493.144531 C 549.933594 493.296875 550.28125 493.480469 550.609375 493.699219 C 550.9375 493.917969 551.242188 494.167969 551.519531 494.445312 C 551.796875 494.726562 552.046875 495.03125 552.265625 495.359375 C 552.484375 495.683594 552.671875 496.03125 552.820312 496.394531 C 552.972656 496.761719 553.085938 497.136719 553.164062 497.523438 C 553.242188 497.910156 553.28125 498.300781 553.28125 498.695312 Z M 553.28125 498.695312 " fill-opacity="1" fill-rule="nonzero"/><path fill="#000000" d="M 503.714844 564.03125 C 503.714844 564.425781 503.675781 564.816406 503.597656 565.203125 C 503.523438 565.589844 503.40625 565.964844 503.257812 566.332031 C 503.105469 566.695312 502.921875 567.042969 502.703125 567.371094 C 502.480469 567.699219 502.234375 568 501.953125 568.28125 C 501.675781 568.558594 501.371094 568.808594 501.042969 569.027344 C 500.714844 569.246094 500.371094 569.429688 500.003906 569.582031 C 499.640625 569.734375 499.265625 569.847656 498.878906 569.925781 C 498.492188 570 498.101562 570.039062 497.707031 570.039062 C 497.3125 570.039062 496.921875 570 496.535156 569.925781 C 496.148438 569.847656 495.769531 569.734375 495.40625 569.582031 C 495.042969 569.429688 494.695312 569.246094 494.367188 569.027344 C 494.039062 568.808594 493.738281 568.558594 493.457031 568.28125 C 493.179688 568 492.929688 567.699219 492.710938 567.371094 C 492.492188 567.042969 492.304688 566.695312 492.15625 566.332031 C 492.003906 565.964844 491.890625 565.589844 491.8125 565.203125 C 491.738281 564.816406 491.699219 564.425781 491.699219 564.03125 C 491.699219 563.636719 491.738281 563.246094 491.8125 562.859375 C 491.890625 562.472656 492.003906 562.097656 492.15625 561.734375 C 492.304688 561.367188 492.492188 561.023438 492.710938 560.695312 C 492.929688 560.367188 493.179688 560.0625 493.457031 559.785156 C 493.738281 559.503906 494.039062 559.253906 494.367188 559.035156 C 494.695312 558.816406 495.042969 558.632812 495.40625 558.480469 C 495.769531 558.332031 496.148438 558.214844 496.535156 558.140625 C 496.921875 558.0625 497.3125 558.023438 497.707031 558.023438 C 498.101562 558.023438 498.492188 558.0625 498.878906 558.140625 C 499.265625 558.214844 499.640625 558.332031 500.003906 558.480469 C 500.371094 558.632812 500.714844 558.816406 501.042969 559.035156 C 501.371094 559.253906 501.675781 559.503906 501.953125 559.785156 C 502.234375 560.0625 502.480469 560.367188 502.703125 560.695312 C 502.921875 561.023438 503.105469 561.367188 503.257812 561.734375 C 503.40625 562.097656 503.523438 562.472656 503.597656 562.859375 C 503.675781 563.246094 503.714844 563.636719 503.714844 564.03125 Z M 503.714844 564.03125 " fill-opacity="1" fill-rule="nonzero"/><path fill="#000000" d="M 484.9375 564.03125 C 484.9375 564.425781 484.902344 564.816406 484.824219 565.203125 C 484.746094 565.589844 484.632812 565.964844 484.480469 566.332031 C 484.332031 566.695312 484.144531 567.042969 483.925781 567.371094 C 483.707031 567.699219 483.457031 568 483.179688 568.28125 C 482.902344 568.558594 482.597656 568.808594 482.269531 569.027344 C 481.941406 569.246094 481.59375 569.429688 481.230469 569.582031 C 480.867188 569.734375 480.488281 569.847656 480.101562 569.925781 C 479.714844 570 479.324219 570.039062 478.929688 570.039062 C 478.535156 570.039062 478.144531 570 477.757812 569.925781 C 477.371094 569.847656 476.996094 569.734375 476.632812 569.582031 C 476.265625 569.429688 475.921875 569.246094 475.59375 569.027344 C 475.265625 568.808594 474.960938 568.558594 474.683594 568.28125 C 474.402344 568 474.15625 567.699219 473.9375 567.371094 C 473.714844 567.042969 473.53125 566.695312 473.378906 566.332031 C 473.230469 565.964844 473.117188 565.589844 473.039062 565.203125 C 472.960938 564.816406 472.921875 564.425781 472.921875 564.03125 C 472.921875 563.636719 472.960938 563.246094 473.039062 562.859375 C 473.117188 562.472656 473.230469 562.097656 473.378906 561.734375 C 473.53125 561.367188 473.714844 561.023438 473.9375 560.695312 C 474.15625 560.367188 474.402344 560.0625 474.683594 559.785156 C 474.960938 559.503906 475.265625 559.253906 475.59375 559.035156 C 475.921875 558.816406 476.265625 558.632812 476.632812 558.480469 C 476.996094 558.332031 477.371094 558.214844 477.757812 558.140625 C 478.144531 558.0625 478.535156 558.023438 478.929688 558.023438 C 479.324219 558.023438 479.714844 558.0625 480.101562 558.140625 C 480.488281 558.214844 480.867188 558.332031 481.230469 558.480469 C 481.59375 558.632812 481.941406 558.816406 482.269531 559.035156 C 482.597656 559.253906 482.902344 559.503906 483.179688 559.785156 C 483.457031 560.0625 483.707031 560.367188 483.925781 560.695312 C 484.144531 561.023438 484.332031 561.367188 484.480469 561.734375 C 484.632812 562.097656 484.746094 562.472656 484.824219 562.859375 C 484.902344 563.246094 484.9375 563.636719 484.9375 564.03125 Z M 484.9375 564.03125 " fill-opacity="1" fill-rule="nonzero"/></svg>